                           WARNING!!! Russian audio only!!!!


Plot: Four Russian friends come from Moscow to Las Vegas to get 5 million dollars they've won in lottery. But everything goes wrong, when they discover that someone stole their winning ticket. 

Director: Gor Kirakosian
Writers: Sergey Kaluzhanov, Irina Pivovarova
Stars: Robert Bear, Irina Byakova and Godfrey Danchima 

MediaInfo 0.7.61:
General
Complete name                            : D:111111Bilet.na.Vegas.2013.O.CAMRip.1400MB.avi
Format                                   : AVI
Format/Info                              : Audio Video Interleave
File size                                : 1.37 GiB
Duration                                 : 1h 30mn
Overall bit rate                         : 2 168 Kbps
Writing application                      : VirtualDubMod 1.5.10.2 (build 2542/release)
Writing library                          : VirtualDubMod build 2542/release

Video
ID                                       : 0
Format                                   : MPEG-4 Visual
Format profile                           : Advanced Simple@L5
Format settings, BVOP                    : 2
Format settings, QPel                    : No
Format settings, GMC                     : No warppoints
Format settings, Matrix                  : Default (MPEG)
Codec ID                                 : XVID
Codec ID/Hint                            : XviD
Duration                                 : 1h 30mn
Bit rate                                 : 2 030 Kbps
Width                                    : 720 pixels
Height                                   : 304 pixels
Display aspect ratio                     : 2.35:1
Frame rate                               : 25.000 fps
Color space                              : YUV
Chroma subsampling                       : 4:2:0
Bit depth                                : 8 bits
Scan type                                : Progressive
Compression mode                         : Lossy
Bits/(Pixel*Frame)                       : 0.371
Stream size                              : 1.28 GiB (94%)
Writing library                          : XviD 1.2.1 (UTC 2008-12-04)

Audio
ID                                       : 1
Format                                   : MPEG Audio
Format version                           : Version 1
Format profile                           : Layer 3
Codec ID                                 : 55
Codec ID/Hint                            : MP3
Duration                                 : 1h 30mn
Bit rate mode                            : Constant
Bit rate                                 : 128 Kbps
Channel(s)                               : 2 channels
Sampling rate                            : 48.0 KHz
Compression mode                         : Lossy
Stream size                              : 82.8 MiB (6%)
Alignment                                : Aligned on interleaves
Interleave, duration                     : 40 ms (1.00 video frame)
Interleave, preload duration             : 504 ms
Writing library                          : LAME3.99r
Encoding settings                        : -m s -V 4 -q 2 -lowpass 17 -b 128

Screens: 
http://img841.imageshack.us/img841/7359/grab2yi.png 
http://img259.imageshack.us/img259/1103/grab3n.png 
http://img825.imageshack.us/img825/7048/grab4gg.png 
http://img707.imageshack.us/img707/4990/grab5z.png 
http://img171.imageshack.us/img171/9595/grab6z.png 
http://img834.imageshack.us/img834/3883/grab7k.png 
http://img210.imageshack.us/img210/5761/grab8vs.png 
http://img845.imageshack.us/img845/7240/grab9dx.png